<?xml version="1.0" encoding="utf-8"?>
<!-- Generator: Adobe Illustrator 29.5.1, SVG Export Plug-In . SVG Version: 9.03 Build 0)  -->
<svg version="1.0" id="Capa_1" xmlns="http://www.w3.org/2000/svg" xmlns:xlink="http://www.w3.org/1999/xlink" x="0px" y="0px"
	 viewBox="0 0 900 683.33" enable-background="new 0 0 900 683.33" xml:space="preserve">
<g>
	<g>
		<path fill="#6DC4CD" d="M438.15,197.98c-21.77-16.26-46.43-27.02-74.77-21.25c-25.45,4.98-44.86,24.66-65.85,37.78v46.17
			c21.25,0,78.7-45.12,104.93-52.47c44.33-12.07,52.47,14.95,84.73,32.53c30.96,16.79,65.32,22.3,95.23,0.26
			c7.87-5.77,13.9-14.17,23.09-18.36v-45.38c-40.66-1.31-64.8,37.25-101,47.75C469.11,235.23,461.76,215.56,438.15,197.98"/>
		<path fill="#6DC4CD" d="M526.82,105.9c-36.46,2.62-58.24,33.05-89.72,45.38c-41.45,16.26-46.96-5.25-74.5-24.92
			c-18.63-13.38-40.92-24.13-65.06-22.04v0.26v0.79v0.79v0.79v0.79v0.79v0.79v0.79v1.05v0.79v0.79v1.05v0.79l0,0v0.79v0.79v0.79
			v0.79v0.79v0.79v0.79v0.79v0.79v0.79v0.79v1.05v0.79v0.79v0.79v0.79v0.79v0.79v0.79v0.79v0.79v0.79v0.79v0.79v0.79v0.79v0.79v1.31
			v0.79v0.79v0.79v0.79v0.79v0.79v0.79v0.79v0.79v0.79v0.79v0.79v1.05v0.79v0.79v1.05v0.79v0.79l0,0
			c11.81-8.92,16.79-16.79,40.4-17.31c36.99-0.79,43.02,16.26,69.26,32c19.68,12.07,40.66,19.15,64.53,17.31
			c43.55-3.41,65.85-57.71,113.85-47.22c4.46,1.05,8.92,2.89,12.85,5.25l7.35,4.72l-6.82-4.98
			C574.04,123.74,547.28,104.59,526.82,105.9"/>
		<path fill="#6DC4CD" d="M545.45,83.08c-14.17-7.61-23.87-18.63-36.2-28.33c-6.56-5.25-14.17-9.97-23.61-13.9
			c-38.3-15.22-61.12-2.1-83.69,13.9c-0.79,0.52-1.84,1.31-2.62,1.84c-7.87,5.51-15.22,11.81-22.56,18.1
			c-9.71,8.13-22.04,13.12-35.42,13.12c-17.05,0-32.53-7.87-42.5-20.2c1.05,2.1,1.05,3.15,2.89,5.51
			c9.44,14.17,28.59,21.77,35.68,25.71c16.26,8.66,37.51,15.48,56.4,14.17c45.65-3.67,60.6-53.52,111.76-48.01
			c20.46,2.36,26.5,13.38,40.14,23.87c16.53,12.33,39.09,22.82,60.6,25.18v-11.54v-8.13V73.11
			C585.85,82.03,567.74,94.89,545.45,83.08"/>
		<path fill="#6DC4CD" d="M509.51,318.66c-36.73,9.44-65.06,49.84-106.51,47.22c0.79,1.57,3.15,3.41,4.98,4.72
			c2.89,2.1,39.88,20.2,42.24,20.46c4.72,0.79,21.51-7.35,31.74-12.33c25.18-13.9,54.83-35.94,78.96-54.83
			C545.71,315.25,526.56,314.2,509.51,318.66"/>
		<path fill="#6DC4CD" d="M535.48,288.49c-21.51-16-32.01-31.74-61.12-39.88c-64.8-18.36-73.45,48.01-134.05,47.48
			c-15.48,0-29.64-7.87-40.14-14.43l0,0c11.02,10.49,22.56,19.41,29.38,24.4c4.46,3.15,8.92,6.03,13.9,8.13
			c15.22,6.82,33.05,11.28,49.32,9.71c41.45-3.94,55.35-43.02,94.7-47.75c35.15-4.2,43.81,17.05,68.99,32
			c3.67,2.1,9.71,6.56,14.95,7.35c24.13-18.89,27.02-27.28,27.02-27.28C575.61,297.67,556.73,304.23,535.48,288.49"/>
		<path fill="#6DC4CD" d="M314.85,609.59c7.35,0,12.85,2.89,16.79,7.61l-6.03,4.2c-2.36-3.15-6.03-4.72-10.76-4.72
			c-8.39,0-13.38,5.77-13.38,14.69c0,8.92,4.98,14.69,13.38,14.69c3.67,0,6.56-1.05,8.66-2.62v-7.08h-8.66v-6.82h16v16.53
			c-3.15,3.94-8.66,6.82-16,6.82c-12.85,0-20.72-8.66-20.72-21.51C294.13,618.51,302,609.59,314.85,609.59"/>
		<path fill="#6DC4CD" d="M382.8,633.2c4.72,0,7.87-3.15,7.87-8.13c0-4.72-3.15-7.87-7.87-7.87h-11.02v16H382.8z M364.43,610.38
			h19.15c8.66,0,14.69,5.77,14.69,14.95c0,6.56-3.15,11.28-8.13,13.38l8.39,12.85h-8.66l-7.61-11.81h-10.23v11.81h-7.35v-41.19
			H364.43z"/>
		<path fill="#6DC4CD" d="M450.74,645.79c8.39,0,13.64-5.77,13.64-14.69s-4.98-14.69-13.64-14.69c-8.39,0-13.38,5.77-13.38,14.69
			C437.36,640.02,442.35,645.79,450.74,645.79 M450.74,609.59c12.85,0,20.99,8.66,20.99,21.51c0,12.85-8.13,21.51-20.99,21.51
			c-12.85,0-20.72-8.66-20.72-21.51C430.02,618.25,437.89,609.59,450.74,609.59"/>
		<path fill="#6DC4CD" d="M504,637.13v-26.76h7.35v27.28c0,4.98,3.41,8.13,8.92,8.13c5.77,0,9.18-2.89,9.18-8.13v-27.28h7.35v26.76
			c0,9.44-6.3,15.48-16.26,15.48h-0.26C510.29,652.61,504,646.58,504,637.13"/>
		<path fill="#6DC4CD" d="M596.34,625.59c0-5.25-3.41-8.39-8.39-8.39h-10.76v16.79h10.76C592.93,633.99,596.34,630.84,596.34,625.59
			 M569.84,610.38h18.63c8.92,0,14.95,6.03,14.95,14.95c0,9.44-6.03,15.48-14.95,15.48h-11.28v11.02h-7.35V610.38z"/>
	</g>
	<g>
		<path fill="#1D1D1B" d="M146.28,516.17c0,11.33-3.57,20.58-10.7,27.76c-7.13,7.18-16.41,10.77-27.84,10.77
			c-10.42,0-18.99-3.01-25.72-9.03c-6.72-6.02-10.85-14.03-12.36-24.05l15.47-3.19c0.91,6.47,3.31,11.68,7.21,15.63
			c3.89,3.94,9.03,5.92,15.4,5.92c6.57,0,11.91-2.23,16.01-6.68c4.1-4.45,6.14-10.16,6.14-17.14v-65.24h16.39V516.17z"/>
		<path fill="#1D1D1B" d="M237.73,518.75h-60.99c0.71,6.78,3.24,12.19,7.59,16.23c4.35,4.05,9.41,6.07,15.17,6.07
			c10.42,0,17.8-4.35,22.15-13.05l14.11,3.04c-3.04,7.79-7.71,13.68-14.03,17.67c-6.32,4-13.73,5.99-22.23,5.99
			c-10.52,0-19.54-3.69-27.08-11.07c-7.54-7.38-11.3-16.89-11.3-28.52c0-11.73,3.77-21.32,11.3-28.75
			c7.53-7.43,16.76-11.15,27.69-11.15c10.21,0,18.94,3.57,26.17,10.7c7.23,7.13,11.05,16.26,11.45,27.38V518.75z M185.54,494.02
			c-4.45,3.24-7.23,7.74-8.34,13.5h44.3c-1.21-5.97-3.74-10.52-7.59-13.65s-8.45-4.7-13.81-4.7
			C194.85,489.17,189.99,490.79,185.54,494.02z"/>
		<path fill="#1D1D1B" d="M302.88,548.94c-6.47,3.84-12.69,5.76-18.66,5.76c-8.4,0-15.02-2.35-19.88-7.05
			c-4.85-4.7-7.28-11.61-7.28-20.71v-36.56h-16.23v-13.05h16.23v-23.36h15.78v23.36h25.79v13.05h-25.79v35.5
			c0,4.55,1.11,8.01,3.34,10.39c2.23,2.38,5.26,3.57,9.1,3.57c4.35,0,8.6-1.37,12.74-4.1L302.88,548.94z"/>
		<path fill="#1D1D1B" d="M373.59,456.55c7.03,5.16,11.45,12.14,13.28,20.94l-16.23,3.34c-0.91-5.36-3.49-9.68-7.74-12.97
			c-4.25-3.29-9.4-4.93-15.47-4.93c-5.97,0-10.77,1.44-14.41,4.32c-3.64,2.88-5.46,6.6-5.46,11.15c0,3.54,1.04,6.32,3.11,8.34
			c2.08,2.02,5.34,3.49,9.79,4.4l22,4.7c17.4,3.84,26.09,13.1,26.09,27.76c0,9.51-3.56,17.07-10.7,22.68
			c-7.13,5.62-16.56,8.42-28.29,8.42c-11.23,0-20.73-2.66-28.52-7.96c-7.79-5.31-12.29-12.72-13.5-22.23l17.29-3.64
			c1.21,6.37,4.15,11.2,8.8,14.48c4.65,3.29,10.47,4.93,17.45,4.93c6.68,0,11.91-1.44,15.7-4.32c3.79-2.88,5.69-6.7,5.69-11.46
			c0-3.84-1.09-6.77-3.26-8.8s-5.84-3.59-11-4.7l-22.15-4.55c-17.09-3.95-25.64-13.15-25.64-27.61c0-9,3.41-16.26,10.24-21.77
			s15.85-8.27,27.08-8.27C357.93,448.81,366.56,451.39,373.59,456.55z"/>
		<path fill="#1D1D1B" d="M476.51,518.75h-60.99c0.71,6.78,3.24,12.19,7.59,16.23c4.35,4.05,9.41,6.07,15.17,6.07
			c10.42,0,17.8-4.35,22.15-13.05l14.11,3.04c-3.04,7.79-7.71,13.68-14.03,17.67c-6.32,4-13.73,5.99-22.23,5.99
			c-10.52,0-19.54-3.69-27.08-11.07c-7.54-7.38-11.3-16.89-11.3-28.52c0-11.73,3.77-21.32,11.3-28.75
			c7.53-7.43,16.76-11.15,27.69-11.15c10.21,0,18.94,3.57,26.17,10.7c7.23,7.13,11.05,16.26,11.45,27.38V518.75z M424.32,494.02
			c-4.45,3.24-7.23,7.74-8.34,13.5h44.3c-1.21-5.97-3.74-10.52-7.59-13.65c-3.84-3.14-8.45-4.7-13.81-4.7
			C433.63,489.17,428.77,490.79,424.32,494.02z"/>
		<path fill="#1D1D1B" d="M540.6,477.03l-1.06,15.17c-0.81-0.1-2.28-0.15-4.4-0.15c-9.3,0-16.38,3.01-21.24,9.03
			s-7.28,14.34-7.28,24.96v26.55h-15.78v-75.25h15.78v16.08c6.88-11.33,16.43-16.99,28.67-16.99
			C537.52,476.42,539.29,476.63,540.6,477.03z"/>
		<path fill="#1D1D1B" d="M595.5,552.58h-16.84l-32.32-75.4h17.14l23.67,56.59l23.67-56.59h17.14L595.5,552.58z"/>
		<path fill="#1D1D1B" d="M653.91,447.75c1.92,1.92,2.88,4.25,2.88,6.98c0,2.83-0.94,5.16-2.81,6.98c-1.87,1.82-4.27,2.73-7.21,2.73
			c-2.93,0-5.36-0.91-7.28-2.73c-1.92-1.82-2.88-4.15-2.88-6.98c0-2.73,0.96-5.06,2.88-6.98c1.92-1.92,4.35-2.88,7.28-2.88
			C649.61,444.87,651.99,445.83,653.91,447.75z M638.89,552.58v-75.25h15.78v75.25H638.89z"/>
		<path fill="#1D1D1B" d="M731.13,524.37l14.56,3.79c-2.02,7.99-6.45,14.41-13.28,19.27c-6.82,4.86-14.64,7.28-23.44,7.28
			c-11.02,0-20.41-3.72-28.14-11.15c-7.74-7.43-11.61-16.96-11.61-28.6c0-11.53,3.87-21.04,11.61-28.52
			c7.74-7.48,17.12-11.23,28.14-11.23c8.6,0,16.28,2.4,23.06,7.21c6.78,4.8,11.33,11.2,13.65,19.19l-15.17,4.4
			c-1.41-5.36-4.05-9.41-7.89-12.14c-3.84-2.73-8.4-4.09-13.65-4.09c-6.98,0-12.77,2.35-17.37,7.05c-4.6,4.7-6.9,10.75-6.9,18.13
			c0,7.58,2.27,13.68,6.83,18.28c4.55,4.6,10.37,6.9,17.45,6.9C720.2,540.14,727.59,534.88,731.13,524.37z"/>
		<path fill="#1D1D1B" d="M830.78,518.75h-60.99c0.71,6.78,3.24,12.19,7.59,16.23c4.35,4.05,9.41,6.07,15.17,6.07
			c10.42,0,17.8-4.35,22.15-13.05l14.11,3.04c-3.04,7.79-7.71,13.68-14.03,17.67c-6.32,4-13.73,5.99-22.23,5.99
			c-10.52,0-19.54-3.69-27.08-11.07c-7.54-7.38-11.3-16.89-11.3-28.52c0-11.73,3.77-21.32,11.3-28.75
			c7.53-7.43,16.76-11.15,27.69-11.15c10.21,0,18.94,3.57,26.17,10.7c7.23,7.13,11.05,16.26,11.45,27.38V518.75z M778.59,494.02
			c-4.45,3.24-7.23,7.74-8.34,13.5h44.3c-1.21-5.97-3.74-10.52-7.59-13.65s-8.45-4.7-13.81-4.7
			C787.89,489.17,783.04,490.79,778.59,494.02z"/>
	</g>
</g>
</svg>
